<?xml version="1.0" encoding="utf-8"?>
<!-- Generator: Adobe Illustrator 28.1.0, SVG Export Plug-In . SVG Version: 6.00 Build 0)  -->
<svg version="1.1" id="Layer_1" xmlns="http://www.w3.org/2000/svg" xmlns:xlink="http://www.w3.org/1999/xlink" x="0px" y="0px"
	 viewBox="0 0 1024 1024" style="enable-background:new 0 0 1024 1024;" xml:space="preserve">
<style type="text/css">
	.st0{fill:#83C6BB;}
	.st1{fill:#FFFFFF;}
	.st2{fill:#FFFFFF;stroke:#FFFFFF;stroke-width:36;stroke-miterlimit:10;}
</style>
<path id="App_Icon_Placeholder_00000093864478326680207870000002877801564201956026_" class="st0" d="M357,0h310
	c102.8,0,154.2,0,209.5,17.5c60.4,22,108,69.6,130,130C1024,202.8,1024,254.2,1024,357v310c0,102.8,0,154.2-17.5,209.5
	c-22,60.4-69.6,108-130,130C821.2,1024,769.8,1024,667,1024H357c-102.8,0-154.2,0-209.5-17.5c-60.4-22-108-69.6-130-130
	C0,821.2,0,769.8,0,667V357c0-102.8,0-154.2,17.5-209.5c22-60.4,69.6-108,130-130C202.8,0,254.2,0,357,0L357,0"/>
<path class="st1" d="M2416.4-391.2l-23.7-86c-1.2-4.2-5.9-6.5-10.1-5.3c-62.7,17.2-124.6,34.3-187.4,51.5
	c43.3-73.7,87.4-147.7,130.8-221.4c3-5.5,1.5-11.9-4-14.8c-25-13.7-51.8-25-79.8-33.1c-4.5-1.7-10.1,0.5-12.5,5.2l-107.9,182.9
	l-147.2-149.3c-3.3-3.2-8.6-4.1-12.6-2.1c-12.3,6.6-39.4,23.1-68.6,52.9c-3.8,4.1-3.8,10.6,0.5,15.3l177.3,179.9l-194.3-4.5
	c-4.4-0.2-8.4,3.2-8.5,7.6l-2.2,88.4c-0.2,4.4,3.2,8.4,7.6,8.5l271.7,6.7c0.7-0.1,1.4-0.2,2.2-0.3l262-72.3
	C2415.1-383,2417.6-386.9,2416.4-391.2z"/>
<g>
	<path class="st1" d="M610.1,267.1l-74,10.9c-3.6,0.6-6,4.3-5.5,7.9c7.9,53.9,15.8,107.3,23.7,161.3c-57-43.6-114-87.9-171-131.6
		c-4.3-3-9.7-2.4-12.8,1.8c-13.9,19.4-26.1,40.6-35.7,63.1c-1.8,3.6-0.6,8.5,3,10.9l141.3,108.6L339.7,607.4c-3,2.4-4.3,6.7-3,10.3
		c4.3,10.9,15.2,35.2,37,62.5c3,3.6,8.5,4.3,12.8,1.2l168-129.2l-23.7,161.3c-0.6,3.6,1.8,7.3,5.5,7.9l73.4,10.9
		c3.6,0.6,7.3-1.8,7.9-5.5l33.4-225.6c0-0.6,0-1.2,0-1.8l-33.4-225.6C616.8,269,613.8,266.6,610.1,267.1z"/>
	<path class="st2" d="M604.7,876.6c4.3,0,8.6,0,12.9,0c32.9,0,65.8-0.1,98.7-0.1c27.1,0,53.9,1.8,79.8-7.5
		c51.9-18.6,88.1-68.8,88.7-124c0,0,0-147.6,0-147.6l0.1-185.4V265.1c0-73-59.4-132.5-132.5-132.5H272.5
		c-73,0-132.5,59.4-132.5,132.5v147.3l0,184.5v147.3c0,73,59.4,132.5,132.5,132.5c0,0,147.6,0,147.6,0
		C481.6,876.7,543.2,876.7,604.7,876.6z M484.7,876.7H540 M140,477v55.3 M884.9,532v-54.6 M272.5,809.2c-35.8,0-64.9-29.1-64.9-64.9
		v-480c0-32.5,24-59.5,55.2-64.2h489.7c35.8,0,64.9,29.1,64.9,64.9v479.2c0,35.8-29.1,64.9-64.9,64.9L272.5,809.2L272.5,809.2z"/>
</g>
<path class="st1" d="M1542.6,73.2"/>
<path class="st1" d="M1545,66.1"/>
<g>
	<path class="st1" d="M448.3,201.5L448.3,201.5c-19.1,0-34.8-15.7-34.8-34.8V64.3c0-19.1,15.7-34.8,34.8-34.8h0
		c19.1,0,34.8,15.7,34.8,34.8v102.4C483.1,185.8,467.4,201.5,448.3,201.5z"/>
	<path class="st1" d="M569.3,201.5L569.3,201.5c-19.1,0-34.8-15.7-34.8-34.8V64.3c0-19.1,15.7-34.8,34.8-34.8h0
		c19.1,0,34.8,15.7,34.8,34.8v102.4C604.2,185.8,588.5,201.5,569.3,201.5z"/>
</g>
<g>
	<path class="st1" d="M448.3,980.6L448.3,980.6c-19.1,0-34.8-15.7-34.8-34.8V843.4c0-19.1,15.7-34.8,34.8-34.8h0
		c19.1,0,34.8,15.7,34.8,34.8v102.4C483.1,965,467.4,980.6,448.3,980.6z"/>
	<path class="st1" d="M569.3,980.6L569.3,980.6c-19.1,0-34.8-15.7-34.8-34.8V843.4c0-19.1,15.7-34.8,34.8-34.8h0
		c19.1,0,34.8,15.7,34.8,34.8v102.4C604.2,965,588.5,980.6,569.3,980.6z"/>
</g>
<g>
	<path class="st1" d="M219.6,568.2L219.6,568.2c0,19.1-15.7,34.8-34.8,34.8H59.3c-19.1,0-34.8-15.7-34.8-34.8v0
		c0-19.1,15.7-34.8,34.8-34.8h125.5C203.9,533.4,219.6,549.1,219.6,568.2z"/>
	<path class="st1" d="M219.6,447.2L219.6,447.2c0,19.1-15.7,34.8-34.8,34.8H59.3c-19.1,0-34.8-15.7-34.8-34.8v0
		c0-19.1,15.7-34.8,34.8-34.8h125.5C203.9,412.3,219.6,428,219.6,447.2z"/>
</g>
<g>
	<path class="st1" d="M1000.8,568.2L1000.8,568.2c0,19.1-15.7,34.8-34.8,34.8H840.5c-19.1,0-34.8-15.7-34.8-34.8v0
		c0-19.1,15.7-34.8,34.8-34.8H966C985.1,533.4,1000.8,549.1,1000.8,568.2z"/>
	<path class="st1" d="M1000.8,447.2L1000.8,447.2c0,19.1-15.7,34.8-34.8,34.8H840.5c-19.1,0-34.8-15.7-34.8-34.8v0
		c0-19.1,15.7-34.8,34.8-34.8H966C985.1,412.3,1000.8,428,1000.8,447.2z"/>
</g>
</svg>
