<?xml version="1.0" encoding="utf-8"?>
<!-- Generator: Adobe Illustrator 28.0.0, SVG Export Plug-In . SVG Version: 6.00 Build 0)  -->
<svg version="1.1" xmlns="http://www.w3.org/2000/svg" xmlns:xlink="http://www.w3.org/1999/xlink" x="0px" y="0px"
	 viewBox="0 0 648 994" style="enable-background:new 0 0 648 994;" xml:space="preserve">
<style type="text/css">
	.st0{fill:#414141;}
	.st1{fill:none;stroke:#DF0A80;stroke-width:4;stroke-miterlimit:10;}
	.st2{display:none;}
	.st3{display:inline;fill:none;stroke:#DF0A80;stroke-width:3;stroke-miterlimit:10;}
	.st4{display:inline;}
	.st5{display:inline;clip-path:url(#SVGID_00000098922425316251233040000006767101842042143156_);}
	.st6{fill:#70C7BA;}
	.st7{fill:#FFFFFF;}
	.st8{fill:#23AD8F;}
	.st9{fill-rule:evenodd;clip-rule:evenodd;fill:#23AD8F;}
	.st10{fill-rule:evenodd;clip-rule:evenodd;fill:#FFFFFF;}
	.st11{fill-rule:evenodd;clip-rule:evenodd;fill:#FFD700;}
	.st12{fill-rule:evenodd;clip-rule:evenodd;fill:#FFDC00;}
	.st13{fill-rule:evenodd;clip-rule:evenodd;fill:#2354E5;}
	.st14{fill-rule:evenodd;clip-rule:evenodd;fill:#17E5A0;}
	.st15{fill:#49CB68;}
	.st16{fill:#25D7E8;}
	.st17{fill:#1AB293;}
	.st18{fill:none;}
	.st19{fill:url(#SVGID_00000134217045418655664520000006949817492405896361_);}
	.st20{fill:url(#SVGID_00000098189048507382984750000012242175701846025395_);}
	.st21{fill:url(#SVGID_00000034071218871466961060000011054198720023470229_);}
	.st22{fill:url(#SVGID_00000057134249612206963350000014399332429856708003_);}
	.st23{opacity:0.32;}
	.st24{fill:#E54037;}
	.st25{fill:url(#SVGID_00000012445427083067360280000012131464016417727144_);}
	.st26{fill:url(#SVGID_00000010289289605764841710000001533327467335035065_);}
	.st27{fill:url(#SVGID_00000058576095307331955460000014239504266760683156_);}
	.st28{fill:url(#SVGID_00000054946945332232078930000016612426698959346347_);}
	.st29{fill:url(#SVGID_00000150796032866974675710000003552477006992521364_);}
	.st30{fill:url(#SVGID_00000018215510150162594700000018236393451740770710_);}
	.st31{fill:url(#SVGID_00000168814211332033530080000004511108964467272639_);}
	.st32{fill:url(#SVGID_00000102526150035603002600000010819501912050400660_);}
	.st33{fill:url(#SVGID_00000086689728075110413600000013223839086924439964_);}
	.st34{fill:url(#SVGID_00000042709415230758287010000001966159884951970995_);}
	.st35{fill:url(#SVGID_00000005236830679597292980000001825081780287711138_);}
	.st36{fill:url(#SVGID_00000040537070012511117450000013865478881057850273_);}
	.st37{fill:none;stroke:#FFFFFF;stroke-miterlimit:10;}
	.st38{fill:#6FBFB2;}
	.st39{fill:url(#SVGID_00000165955916689907347140000013696827594344546228_);}
	.st40{fill:url(#SVGID_00000027586601511529624820000011955042866765201800_);}
	.st41{fill:url(#SVGID_00000098925203778934964500000002675235530026013854_);}
	.st42{fill:url(#SVGID_00000039837423501417534550000016757069066165648316_);}
	.st43{fill:url(#SVGID_00000150062854297636793410000004302889036300908732_);}
	.st44{fill:url(#SVGID_00000137824042116506621140000012503014900995597233_);}
	.st45{fill:url(#SVGID_00000057114160171439539630000015111023647938308998_);}
	.st46{fill:url(#SVGID_00000108271797142552045150000007994844076749706667_);}
	.st47{fill:url(#SVGID_00000076594228336483101650000014562891877670836898_);}
	.st48{fill:url(#SVGID_00000075133338504423234680000005839561428371221940_);}
	.st49{fill:url(#SVGID_00000114780109077114702460000002356636065762917543_);}
	.st50{fill:url(#SVGID_00000023257416387065761650000005843645086932936089_);}
	.st51{fill:url(#SVGID_00000160875699277590019880000014152270598142584473_);}
	.st52{fill:url(#SVGID_00000036242812461650791960000004328539643063962296_);}
	.st53{fill:url(#SVGID_00000083780245535727423110000015001522622874781622_);}
	.st54{fill:url(#SVGID_00000018953581394970429630000018223275502766523314_);}
	.st55{fill:url(#SVGID_00000065792399777003907230000004596486081224872635_);}
	.st56{fill:url(#SVGID_00000005243560293456022270000009546782977232023969_);}
	.st57{fill:url(#SVGID_00000014626816041526327420000001437302647688513944_);}
	.st58{fill:url(#SVGID_00000022540677338586225550000009873684977803709838_);}
	.st59{fill:url(#SVGID_00000000920165221010543690000003083620006872795567_);}
	.st60{fill:url(#SVGID_00000037680241786739838090000013602643670865001110_);}
	.st61{fill:url(#SVGID_00000122681582258711390830000006944694765393341848_);}
	.st62{fill:url(#SVGID_00000023240514109503566610000004368545485439247038_);}
	.st63{fill:url(#SVGID_00000057869077063183882020000009150781525580651701_);}
	.st64{fill:url(#SVGID_00000080898597152300094780000015793136658918721925_);}
	.st65{fill:url(#SVGID_00000167357260295642474130000002548092454253108108_);}
	.st66{fill:url(#SVGID_00000127729412432550963760000002068150038744458399_);}
	.st67{fill:url(#SVGID_00000179614207554413079540000009277684054359898253_);}
	.st68{fill:url(#SVGID_00000030467687613903198810000004231821281183209867_);}
	.st69{fill-rule:evenodd;clip-rule:evenodd;fill:url(#path-2_00000106107664345605675300000008914776669127465142_);}
	.st70{fill-rule:evenodd;clip-rule:evenodd;fill:#3F599E;}
	.st71{fill-rule:evenodd;clip-rule:evenodd;fill:url(#path-5_00000150075754921002714120000015163706495079581864_);}
	.st72{fill-rule:evenodd;clip-rule:evenodd;fill:#FFFFFF;fill-opacity:0.7277;}
	.st73{fill-rule:evenodd;clip-rule:evenodd;fill:#B4CFE8;}
	.st74{fill-rule:evenodd;clip-rule:evenodd;fill:url(#path-8_00000144323195025682630610000000225175178333355409_);}
	.st75{fill-rule:evenodd;clip-rule:evenodd;fill:url(#path-8_00000005951731111262193480000016344526903045971361_);}
	.st76{fill-rule:evenodd;clip-rule:evenodd;fill:url(#path-11_00000065780003352293281160000001370890161952439459_);}
	.st77{fill-rule:evenodd;clip-rule:evenodd;fill:url(#path-11_00000078741765034481819680000001167862267840059786_);}
	.st78{fill:url(#SVGID_00000074424382299073041840000016428472756071321771_);}
	.st79{fill:url(#SVGID_00000164495802488598186580000014403086531841856183_);}
	.st80{fill:#00B08F;}
	.st81{fill:#76F4AA;}
	.st82{fill:url(#SVGID_00000003092577228874704600000010040392510718839455_);}
	.st83{fill:url(#Shape-Copy-14_00000074424009321046088710000012030933075175046063_);}
	.st84{fill:#00CFC3;}
	.st85{fill:#F2BB43;}
	.st86{fill:#FFBD40;}
	.st87{fill:#DF0A80;}
	.st88{fill-rule:evenodd;clip-rule:evenodd;fill:#3576ED;}
	.st89{fill-rule:evenodd;clip-rule:evenodd;}
	.st90{fill:#2954FD;}
	
		.st91{clip-path:url(#SVGID_00000178885222306987587660000013142962883464948415_);fill:url(#SVGID_00000182495189239197346570000014735599743471547061_);}
	
		.st92{clip-path:url(#SVGID_00000027574563858827533660000017398112540933813655_);fill:url(#SVGID_00000005258461221684033420000007336816513110527385_);}
	
		.st93{clip-path:url(#SVGID_00000005258653457202268400000007526400630627436440_);fill:url(#SVGID_00000001660581024010674920000002602860806215914930_);}
	
		.st94{clip-path:url(#SVGID_00000077305602499310112780000007798613201650772667_);fill:url(#SVGID_00000093883387212697854850000006373184197818698631_);}
	.st95{fill:#221F1F;}
	.st96{fill-rule:evenodd;clip-rule:evenodd;fill:url(#path-2_00000106112340137536088790000013195956059712479369_);}
	.st97{fill-rule:evenodd;clip-rule:evenodd;fill:url(#path-5_00000043418353588550831200000006088530666666531769_);}
	.st98{fill-rule:evenodd;clip-rule:evenodd;fill:url(#path-8_00000154415120910196495050000003844029007283228838_);}
	.st99{fill-rule:evenodd;clip-rule:evenodd;fill:url(#path-8_00000096774918636257347740000017658129174318557884_);}
	.st100{fill-rule:evenodd;clip-rule:evenodd;fill:url(#path-11_00000015343043081130516270000006636815483452539011_);}
	.st101{fill-rule:evenodd;clip-rule:evenodd;fill:url(#path-11_00000038380404207134109440000011667864618567853198_);}
	.st102{fill:#5D658F;}
	.st103{fill:#C1C0C1;}
	.st104{fill:#A2A1A2;}
	.st105{fill:#9189C4;}
	.st106{fill:#868586;}
	.st107{fill:#383738;}
	.st108{fill:#373380;}
	.st109{fill:#6E6D6E;}
	.st110{fill:url(#SVGID_00000017477611136865744110000018089017718744443012_);}
	.st111{fill:#D94DFB;}
	.st112{fill:url(#Path_2227_00000037666924538474628480000013607946948774754230_);}
	.st113{opacity:0.56;fill:url(#Path_2228_00000109734249992691863480000000341620992315817605_);enable-background:new    ;}
	.st114{opacity:0.56;fill:url(#Path_2229_00000142891478084156138050000011716607197174376079_);enable-background:new    ;}
	.st115{fill:url(#Path_2233_00000147181879977552225500000011650939435415515821_);}
	.st116{fill:url(#Path_2234_00000018932631720845230060000016838913584677877919_);}
	.st117{fill:url(#Path_2236_00000032615506739229182040000015454643929429318289_);}
	.st118{fill:url(#Path_2237_00000005945769822786792590000009657261017490063293_);}
	.st119{fill:#F13262;}
	.st120{fill:#027BA3;}
	.st121{fill:#01255D;}
	.st122{fill:#F11A1D;}
	.st123{fill:#188EFD;}
	.st124{fill:none;stroke:#188EFD;stroke-width:8.6714;stroke-linecap:round;stroke-miterlimit:10;}
	.st125{clip-path:url(#SVGID_00000076592177566739733970000004408992701982347198_);fill:#FFFFFF;}
	.st126{clip-path:url(#SVGID_00000160896339066367033560000004898766305919521465_);fill:#FFFFFF;}
	.st127{clip-path:url(#SVGID_00000140701251692747930670000006212461244693090448_);fill:#FFFFFF;}
	.st128{clip-path:url(#SVGID_00000181088690157039868730000001394028751968702627_);fill:#FFFFFF;}
	.st129{opacity:0.56;fill:#FFFFFF;enable-background:new    ;}
	.st130{fill-rule:evenodd;clip-rule:evenodd;fill:#414141;}
	.st131{fill:#FCE837;}
	.st132{opacity:0.95;fill-rule:evenodd;clip-rule:evenodd;fill:#FCE837;enable-background:new    ;}
	.st133{display:inline;fill:#49E1C2;}
	.st134{fill:#6FC6B9;}
	.st135{fill:#021902;}
	.st136{fill:#FDFDFD;}
	.st137{fill:#4B933F;}
	.st138{fill:#4E9642;}
	.st139{fill:#FFD48E;}
	.st140{fill:#FF5230;}
	.st141{fill:#FD793B;}
	.st142{fill:#FD9330;}
	.st143{fill:#FDFDFF;}
	.st144{fill:#FDBA7B;}
	.st145{fill:#FD8C67;}
	.st146{fill:#FDAA58;}
	.st147{fill:#FDB06F;}
	.st148{fill:#FDB76F;}
	.st149{fill:#FFA474;}
	.st150{fill:#FF9573;}
	.st151{fill:#FD9C71;}
	.st152{fill:#FDAF78;}
	.st153{fill:#FDEF54;}
	.st154{fill:#00EF8B;}
	.st155{opacity:0.6;fill-rule:evenodd;clip-rule:evenodd;fill:url(#SVGID_00000090284435500561647730000012478772775252441274_);}
	.st156{fill:#4A998C;}
	.st157{fill:#6FC7BA;}
	.st158{fill:#49EACB;}
	.st159{opacity:0.6;fill:#4B8C83;}
	.st160{filter:url(#Adobe_OpacityMaskFilter);}
	.st161{filter:url(#Adobe_OpacityMaskFilter_00000111908703746053188410000010508507652228306601_);}
	
		.st162{mask:url(#SVGID_00000070114605964405622110000006311199957903356812_);fill:url(#SVGID_00000000220109662075989550000004599807164578128516_);}
	.st163{display:none;opacity:0.6;fill:url(#SVGID_00000164473291810241522240000015962052642341076621_);}
	.st164{opacity:0.66;fill:#4B8C83;}
	.st165{opacity:0.6;fill-rule:evenodd;clip-rule:evenodd;fill:url(#SVGID_00000047743727771983438740000005706016448760700346_);}
	.st166{filter:url(#Adobe_OpacityMaskFilter_00000178206979587794969790000016852412901378673597_);}
	.st167{filter:url(#Adobe_OpacityMaskFilter_00000051360073385697868580000011465776877916657312_);}
	
		.st168{mask:url(#SVGID_00000022522604190023366710000008421595724833567629_);fill:url(#SVGID_00000132768139586394845180000001457323829770716301_);}
	.st169{display:none;opacity:0.6;fill:url(#SVGID_00000118392973098595725040000007873340337339591596_);}
	.st170{fill-rule:evenodd;clip-rule:evenodd;fill:#FFFDF2;}
	.st171{fill-rule:evenodd;clip-rule:evenodd;fill:url(#SVGID_00000155136538509975982520000005679356033887932586_);}
	.st172{fill-rule:evenodd;clip-rule:evenodd;fill:url(#SVGID_00000152949804610410384920000011822915473943324290_);}
	.st173{fill-rule:evenodd;clip-rule:evenodd;fill:url(#SVGID_00000076594673007363433770000009390468859591808406_);}
	.st174{fill:#4B8C83;}
	.st175{fill-rule:evenodd;clip-rule:evenodd;fill:#FF2EBF;}
	.st176{fill:#52AF9F;}
	.st177{fill:url(#SVGID_00000043431951180992682360000002710902119416376984_);}
	.st178{fill:url(#SVGID_00000098200067374471729020000011636485148214520203_);}
	.st179{fill:none;stroke:#70C7BA;stroke-width:9;stroke-miterlimit:10;}
</style>
<g id="BG">
</g>
<g id="GFX">
	<g class="st2">
		<path class="st133" d="M66.8,328.8c-5.1-12.4-13.2-23.9-22.6-33.2c-9.3-9.3-21.3-16.3-33.7-21.5c-11.9-5-25.2-7.4-39-7.4
			s-27.9,0.5-39.8,5.5c-12.4,5.1-22.7,14.9-32.1,24.2c-9.3,9.3-20.2,19.2-25.3,31.6c-5,11.9-3.3,26.5-3.3,40.3c0,13.7,1,27.2,6,39.2
			c5.1,12.4,15.6,21.1,24.9,30.5c9.3,9.3,17.8,20.5,30.2,25.6c11.9,5,25.7,8.3,39.5,8.3s27.2-4.1,39.2-9
			c12.4-5.1,23.6-13.2,32.9-22.5c9.3-9.3,16.9-20.7,22-33.1c5-11.9,10.6-25.2,10.6-39C76.3,354.5,71.8,340.7,66.8,328.8z M0.4,426.8
			l-21.8-3.2l6.2-42.1l-45.6,35.1L-74.1,399l40-30.8l-40-30.8l13.4-17.5l45.6,35.1l-6.2-42.1l21.8-3.2l8.6,58.6L0.4,426.8z"/>
		<g class="st4">
			<path class="st7" d="M33.4,523.3c10.6,0,20,3,26.1,9.1c5.1,4.9,8.1,12,8.1,21.1c0,9.1-2.7,15.8-6.8,20.6
				c-6,6.7-15.2,9.5-24.1,9.5c-3.3,0-6.1-0.3-8.9-1v27.5c0,1.1-0.9,2-1.9,2H13c-1.1,0-1.9-0.9-1.9-2v-82.6c0-1.1,0.6-1.9,1.9-2.3
				C18.2,524,25.9,523.3,33.4,523.3z M27.8,568.9c2,0.8,4.3,1.1,7.1,1.1c4.2,0,8.4-0.9,11.5-3.7c2.8-2.5,4.6-6.8,4.6-12.8
				c0-5.1-1.5-9-4.1-11.9c-2.8-3-7-4.7-11.9-4.7c-2.3,0-5.1,0.1-7.2,0.5V568.9z"/>
			<path class="st7" d="M85.6,540.8c-1.3,0.8-2.2,0.8-2.8-0.6l-3.7-8c-0.5-1.1-0.4-1.8,0.8-2.5c5.8-3.7,14.4-6.3,23.6-6.3
				c5.8,0,13.4,1.1,18.4,6.6c3.2,3.5,5.1,8.1,5.1,15.4v35.2c0,1-0.9,1.9-1.9,1.9h-11.1c-1.1,0-2-0.9-2-1.9v-1h-0.5
				c-5.2,3.3-9.6,4.2-15.5,4.2c-5.2,0-10-1.6-13.4-4.7c-3.5-2.9-5.7-7.5-5.7-13.2c0-7.5,4.4-11.9,10.5-14.7c7-3,16.1-4.1,22.9-4.6
				v-1.3c0-2.9-0.5-5.1-1.8-6.6c-1.4-1.8-4.1-2.5-7-2.5C95.5,536.3,89.9,538.4,85.6,540.8z M110.2,568.9v-11
				c-7.6,0.3-17.5,1.3-17.5,7.5c0,4.1,3.9,6,8.6,6C104.2,571.3,107.2,570.7,110.2,568.9z"/>
		</g>
	</g>
	<g>
		
			<linearGradient id="SVGID_00000026150756542123002780000011128156546536160943_" gradientUnits="userSpaceOnUse" x1="296.9414" y1="876.4201" x2="296.9414" y2="448.4415" gradientTransform="matrix(0.999 4.533572e-02 -4.533572e-02 0.999 42.6167 48.9155)">
			<stop  offset="0.5481" style="stop-color:#49EACB"/>
			<stop  offset="1" style="stop-color:#49EACB;stop-opacity:0"/>
		</linearGradient>
		
			<polygon style="opacity:0.6;fill-rule:evenodd;clip-rule:evenodd;fill:url(#SVGID_00000026150756542123002780000011128156546536160943_);" points="
			44.4,427.2 601.4,417.9 521.4,935.3 159.4,933.3 		"/>
	</g>
	<g>
		<g>
			<g>
				<path class="st156" d="M394.8,355.3c-18.6,93.6-48.1,175.9-91.8,264.6c0,0-2.3-1.9-5.7-4.5c12.9-32.2,20.9-86.4,19.9-122.8
					c4.7-7.4,13.3-13.3,21.7-17c4.3-33.1-1-91.9-8.1-121.7C321.6,315.8,406.1,298.4,394.8,355.3z"/>
			</g>
		</g>
		<g>
			<g>
				<path class="st156" d="M389.8,313.4c39.7-8.6,96.6-12.5,134.7,1.3c-25.4,47.3-60.2,105.7-89.7,142.1c0,0-2-2.2-5-5.3
					c17.4-30,30.5-67.8,34.7-104c5.7-6.6,13.5-11.3,22-15.3c-21.6,6.6-73.8,34.9-96.2,46.3C355.5,396.3,333.1,325.7,389.8,313.4z"/>
			</g>
		</g>
		<g>
			<g>
				<path class="st156" d="M249.9,188.1c40.9-17.6,156.2-30.4,186.1-19.4c14,21.6-4.3,125.6-19.6,184.2c-29.1,6.6-56,11.5-84,17.9
					C308.7,291.9,286.5,235.2,249.9,188.1z"/>
			</g>
		</g>
		<path class="st6" d="M308.1,640.5c-2.2-4.4-5.6-13-5.1-20.6c0.3-4.9-4.5-5.2-5.7-4.5c-1.2,0.6-6,2.4-7,3.5
			c-0.9,1.1,3.2,8.3,5.7,10.2c2.8,2.1,1.9,10.2,9.2,14.4C309.6,645.9,309.9,644.1,308.1,640.5z"/>
		<path class="st6" d="M455,462.4c-4.7-1.7-12.4-3.9-16.7-10.2c-2.7-4-6.6-3.9-8.5-0.7c-1.2,2.2-2.8,4.9-2.7,6.4
			c0.1,1.5,8.1,4.8,11.1,4.4c3.5-0.4,8.3,6.1,16.6,4.2C459.7,465.3,458.8,463.8,455,462.4z"/>
		<g>
			<g>
				<g>
					<path class="st7" d="M386.4,194.1c4.4-4.3,7.4-9.9,9.1-15.3c2.3-1.1,2.8-3.9,0.6-4.9c1.1-0.2,1.8-0.5,1.9-1.5
						c0-1,0.1-3.3,0.1-3.3l4.3,0.6c0,0-1.4-6.5-4.3-12.6c-2.7-5.9-5.3-8-13.3-9.1c-9-1.2-14.5,5.1-17.3,13.4
						c-0.9,2.6-2.3,5.9-3.6,8.7C367.3,178.5,377.5,189.2,386.4,194.1z"/>
				</g>
			</g>
			<path class="st6" d="M394.9,161.6c0.1,0.8-0.4,1.6-1.3,1.7c-0.8,0.1-1.6-0.4-1.7-1.3c-0.1-0.8,0.4-1.6,1.3-1.7
				C394,160.2,394.7,160.8,394.9,161.6z"/>
			<path class="st6" d="M391.5,161.1c0.1,0.8-0.4,1.6-1.3,1.7c-0.8,0.1-1.6-0.4-1.7-1.3c-0.1-0.8,0.4-1.6,1.3-1.7
				C390.6,159.7,391.4,160.3,391.5,161.1z"/>
			<path class="st6" d="M373.5,147.4c0.9-4.1,5.9-6.3,9.8-4.5c3.8,1.8,7.5,1.4,7.5-0.7c2.9,3.4,1.4,8.1-2.3,9.6
				c-3.7,1.5-10,1.5-14.5,0.3c0.4,2.3-4.2,9.9-6.5,9.4C364.6,157,367.4,146.6,373.5,147.4z"/>
		</g>
		<g>
			
				<ellipse transform="matrix(0.2464 -0.9692 0.9692 0.2464 -104.9134 553.0344)" class="st7" cx="303.2" cy="344" rx="76" ry="70.9"/>
			<g>
				<path class="st157" d="M399.8,294.1c-5.9-13.1-14.9-25.2-25.2-34.9c-10.3-9.7-23.3-16.9-36.7-22c-13-5-27.3-7.2-42-6.8
					c-14.7,0.4-29.8,1.4-42.5,7c-13.1,5.9-23.9,16.6-33.7,26.9c-9.7,10.3-21.1,21.2-26.2,34.6c-5,13-2.8,28.5-2.4,43.2
					c0.4,14.7,1.9,29.1,7.5,41.8c5.9,13.1,17.3,22.2,27.6,31.9c10.3,9.7,19.7,21.4,33.1,26.6c13,5,27.8,8.2,42.5,7.8
					s29.1-5.2,41.7-10.8c13.1-5.9,24.9-14.8,34.6-25.1c9.7-10.3,17.5-22.7,22.6-36.1c5-13,10.6-27.4,10.2-42.1
					C410.8,321.4,405.5,306.8,399.8,294.1z M331.5,401.1l-23.4-2.8l5.4-45.3l-47.8,39l-14.9-18.4l41.9-34.2L249,307.6l13.8-19.2
					l49.9,36.3l-7.9-45l23.2-4.1l11,62.5L331.5,401.1z"/>
			</g>
		</g>
		<g>
			<g>
				<g>
					<polygon class="st7" points="266,338.5 269,336.9 268.6,335.5 262.9,336.7 259.6,339.3 257,337.3 252.2,343.4 254.8,345.8 
						256,347.6 262,352.4 264.7,355.3 268.4,356.3 268.8,355.4 266.1,353.8 264.7,350.9 268.1,353.4 272.8,354.5 273.3,353.2 
						269.6,351.9 267.4,349.5 271,351 275.5,351.6 276.2,350 272,349.2 268.8,347.4 271.6,347.6 275.5,347.1 275.9,345.9 
						271.8,345.3 268.3,344 263.6,340.7 					"/>
				</g>
			</g>
			<path class="st156" d="M248.6,187.9c-17.4,15.5-58.8,73.4-65.8,89.7c14,17.5,59.5,63.6,69.7,68.7c2.1-2.5,6-6.9,8.4-10.5
				c-17-15.7-38.9-46.1-44.6-62.4c10.8-16.9,39.1-41.9,64.4-48.9C282.5,208.8,266.4,188.6,248.6,187.9z"/>
		</g>
		<g>
			<g>
				<path class="st158" d="M388.2,208l2.6-9.9c-3.5-1.4-7-2.8-10.5-4.2l-5.1,8.1L388.2,208z"/>
			</g>
			<path class="st158" d="M378.2,202.3c2.7-3.5,10.4-0.4,7.7,3.5c-25.3,35.9-72.1-9.7-126.2,13.6c-7-3.1-17.2-8.3-17.2-8.3
				s5.9-12,8.4-17.5C312.4,181.1,355.3,232.1,378.2,202.3z"/>
		</g>
		<g>
			<polygon class="st7" points="437.1,66.7 448.8,65.5 448.1,61.3 447.4,56.5 444.7,52.2 442,50.6 441.4,48.8 438,46.4 426.1,48.8 
				424.7,57.4 435.8,60.9 			"/>
			<path class="st156" d="M437.2,229.5c28.3-38.5,30.1-65.9,38.2-98c-4-16.5-27.4-74.6-27.4-74.6l-13,8.5l13,65.3
				c0,0-5.6,21.2-17.1,40.9C426.3,188.5,429.4,217.5,437.2,229.5z"/>
			<polygon class="st7" points="426.3,52.4 424.3,51.7 424.2,48 430.5,45.9 431.7,49 			"/>
		</g>
	</g>
	<polygon class="st159" points="159.9,922.2 196.9,833.9 260.7,797.1 280.1,831.7 291.6,917.1 307.3,917 324.4,807.5 351.6,796.8 
		359.6,807.5 372.4,856.7 381.7,827.5 392.1,838.3 409.5,926.8 390.9,764 427.5,770.8 450.4,786.5 489.3,881 475.5,809.3 
		494.5,809.2 561.7,911.7 505.9,962.1 214,956.2 	"/>
	<defs>
		<filter id="Adobe_OpacityMaskFilter" filterUnits="userSpaceOnUse" x="229.5" y="88.1" width="222.3" height="835.2">
			<feFlood  style="flood-color:white;flood-opacity:1" result="back"/>
			<feBlend  in="SourceGraphic" in2="back" mode="normal"/>
		</filter>
	</defs>
	
		<mask maskUnits="userSpaceOnUse" x="229.5" y="88.1" width="222.3" height="835.2" id="SVGID_00000165929960733922772860000004071306282981964191_">
		<g class="st160">
			<defs>
				
					<filter id="Adobe_OpacityMaskFilter_00000026139517700734649720000004597198444104195237_" filterUnits="userSpaceOnUse" x="229.5" y="88.1" width="222.3" height="835.2">
					<feFlood  style="flood-color:white;flood-opacity:1" result="back"/>
					<feBlend  in="SourceGraphic" in2="back" mode="normal"/>
				</filter>
			</defs>
			
				<mask maskUnits="userSpaceOnUse" x="229.5" y="88.1" width="222.3" height="835.2" id="SVGID_00000165929960733922772860000004071306282981964191_">
			</mask>
			
				<linearGradient id="SVGID_00000039820396447364666630000003331551434871964064_" gradientUnits="userSpaceOnUse" x1="-1040.8862" y1="1801.3297" x2="-1541.8629" y2="1801.3297" gradientTransform="matrix(-3.805668e-03 -1 1 -3.805668e-03 -1465.7415 -768.0668)">
				<stop  offset="0" style="stop-color:#808080"/>
				<stop  offset="0.1482" style="stop-color:#8B8B8B"/>
				<stop  offset="0.4095" style="stop-color:#A8A8A8"/>
				<stop  offset="0.7507" style="stop-color:#D8D8D8"/>
				<stop  offset="1" style="stop-color:#FFFFFF"/>
			</linearGradient>
			
				<path style="mask:url(#SVGID_00000165929960733922772860000004071306282981964191_);fill:url(#SVGID_00000039820396447364666630000003331551434871964064_);" d="
				M229.5,192.7C229.5,192.7,229.5,192.7,229.5,192.7L229.5,192.7l2.8,730.6l219.6-0.8L449,191.9h0c0,0,0-0.1,0-0.1
				c-0.3-68.3-56.2-104-110.2-103.8C284.9,88.3,229.2,124.4,229.5,192.7z"/>
		</g>
	</mask>
	
		<linearGradient id="SVGID_00000145052789086117479780000017059937104933705864_" gradientUnits="userSpaceOnUse" x1="-1040.8862" y1="1801.3297" x2="-1541.8629" y2="1801.3297" gradientTransform="matrix(-3.805668e-03 -1 1 -3.805668e-03 -1465.7415 -768.0668)">
		<stop  offset="0" style="stop-color:#FFFFFF"/>
		<stop  offset="0.1123" style="stop-color:#F4FEFC"/>
		<stop  offset="0.3104" style="stop-color:#D6FAF3"/>
		<stop  offset="0.571" style="stop-color:#A6F5E6"/>
		<stop  offset="0.8807" style="stop-color:#64EDD3"/>
		<stop  offset="1" style="stop-color:#49EACB"/>
	</linearGradient>
	<path style="display:none;opacity:0.6;fill:url(#SVGID_00000145052789086117479780000017059937104933705864_);" d="M229.5,192.7
		C229.5,192.7,229.5,192.7,229.5,192.7L229.5,192.7l2.8,730.6l219.6-0.8L449,191.9h0c0,0,0-0.1,0-0.1
		c-0.3-68.3-56.2-104-110.2-103.8C284.9,88.3,229.2,124.4,229.5,192.7z"/>
	<polygon class="st159" points="64.5,783.9 5.7,949.8 98.2,949.8 95.7,794.3 77.9,774.1 	"/>
	<polygon class="st6" points="261.2,882.6 257.3,946.4 334.1,935.2 315.3,851.5 	"/>
	<polygon class="st6" points="70.3,928.2 12,931.5 149,781.4 206.4,742.7 197.9,810.4 131.4,931 	"/>
	<polygon class="st6" points="441.7,668.4 424.3,694 446.3,751.1 473.2,795.3 493.3,738.2 	"/>
	<polygon class="st6" points="265.3,806.2 245.8,847.1 252.3,890.1 264.9,895.9 284.6,886.7 289.6,851 	"/>
	<polygon class="st6" points="568.4,846.3 567.8,803.5 550.3,764 540.5,761 531.1,773.9 539.1,808.8 	"/>
	<polygon class="st6" points="109.6,940.4 173.4,891.4 223,846.2 238.1,857.5 229.1,948.2 	"/>
	<polygon class="st6" points="416.5,797.3 426.5,858.2 461.2,951.3 500.8,947.6 540.3,921 432.4,781.7 	"/>
	<polygon class="st6" points="516.4,829.1 510.4,858.8 529.6,929.5 631.4,940.8 584.1,873.8 543.4,843.2 	"/>
	<polygon class="st6" points="336.3,890.9 335.3,960.2 385.6,989.4 435.3,941.5 399.7,850.9 362.6,791.8 	"/>
	<polygon class="st6" points="214,625.3 203,659.1 231.7,683.3 243.2,645.8 	"/>
	<polygon class="st6" points="278.4,444.6 274.3,456.9 286.3,466.1 290.8,450 	"/>
	<polygon class="st6" points="230.7,750.1 220.9,763.3 230.8,786.5 251.4,786.4 240.9,751.9 	"/>
	<polygon class="st6" points="470,561.5 461.6,572.9 470.2,593 482,584.8 478.8,563.1 	"/>
	<polygon class="st6" points="521,618.1 514.8,625.2 517.9,632.4 526.3,631.9 529.2,622.9 	"/>
	<polygon class="st6" points="475.9,434.5 472.9,439.5 474.5,443.8 479.2,441.4 479.2,437.6 	"/>
	<polygon class="st6" points="443.7,498.6 454.3,506.4 462.7,498.8 458,487.8 449.3,487.1 	"/>
	<polygon class="st6" points="505.1,712.3 518.6,722.3 529.1,712.7 523.2,698.7 512.2,697.8 	"/>
	<polygon class="st6" points="194.6,460 201.5,465 206.9,460.1 203.9,453 198.2,452.5 	"/>
	<polygon class="st6" points="244.3,736.5 279.8,720.2 272,687.9 236.9,684.1 222.8,705.7 	"/>
	<polygon class="st6" points="158.7,619 163.9,617.6 163.6,612.9 158.9,611.6 156.4,614.2 	"/>
	<polygon class="st6" points="393.9,630.6 388,648.8 399.7,677.6 428.9,656.5 413.7,630.6 	"/>
	<polygon class="st6" points="390.7,624.1 393.9,612.4 379.9,604.8 378.8,618.4 	"/>
	<polygon class="st6" points="337.2,634.1 312.9,677.5 316.6,685.2 333.5,682.1 363.8,645.7 	"/>
	<polygon class="st6" points="400.3,549.8 393,582.9 397.7,592.6 418.8,588.8 433.6,564.3 	"/>
	<polygon class="st6" points="218.2,504.3 200.8,516.7 207.1,520.6 232.3,518.9 239.1,507.8 	"/>
	<polygon class="st6" points="364.5,516.1 390.5,528.8 392.4,507.3 374.6,506.7 	"/>
	<polygon class="st6" points="160.7,235.6 155.2,249.7 158,249.7 166.4,235.6 	"/>
	<polygon class="st6" points="150.7,352.4 140.7,379 148.5,384.4 157.6,358.8 	"/>
	<polygon class="st6" points="350.7,753.4 379.5,793.3 397.3,824 411.6,829.2 406.4,778 399.3,739.8 361.2,696 340,694.1 	"/>
	<polygon class="st6" points="278.9,780.1 294.8,829.9 313.4,822.9 321,759.9 299.8,732.6 284.4,736.7 	"/>
	<polygon class="st6" points="276.9,519.7 264.6,567.4 270.9,583 293.4,582 324.7,525.8 297.2,502.7 	"/>
	<polygon class="st6" points="100.8,671.2 96.7,737.7 123.4,749.6 181.2,671 168.2,652.4 	"/>
	<g>
		<polygon class="st158" points="541.8,489.9 532.3,464.7 495.1,508 495.1,523.2 529.5,525 		"/>
		<polygon class="st158" points="448.1,722.9 443.9,673.4 421.1,689.2 433.9,726.4 		"/>
		<polygon class="st158" points="247.4,508.9 241.2,548.2 251.9,561.3 266.1,522.5 		"/>
		<polygon class="st158" points="487.3,605.3 475.5,614 467.6,686.1 498.5,701.2 504.4,624.7 		"/>
		<polygon class="st158" points="271.8,729.9 261.7,727.8 239,700.1 245.4,676.2 269.4,671.1 281.9,695.1 		"/>
		<polygon class="st158" points="143.3,792.3 131.9,753 136.4,703.1 166.3,685.4 195.2,703.9 187.6,767.5 		"/>
		<polygon class="st158" points="640.5,925.7 606.5,861.5 578.9,827.8 551.7,839.4 579.9,920.5 		"/>
		<polygon class="st158" points="18.1,938.2 48.2,863.3 103.9,802.5 108.9,816.5 80.9,933.9 		"/>
		<polygon class="st158" points="533.5,855.6 546.6,733.6 533.1,707 513.8,706.7 506.7,823 		"/>
		<g>
			<polygon class="st158" points="522.3,560.4 503.2,567.6 499.2,588.9 522.5,593.1 			"/>
		</g>
		<polygon class="st158" points="586.6,683.1 577.7,683.1 568.6,691.7 569.7,702.3 562.5,707.1 574.6,707.6 585.7,694.3 		"/>
		<polygon class="st158" points="447.6,766.3 444.1,782.4 459.2,811.2 487.8,803.8 491.6,772.1 478.4,766.6 467.8,751.7 		"/>
		<polygon class="st158" points="425,461 423.5,467.9 430,480.3 442.2,477.1 443.9,463.5 438.2,461.2 433.6,454.7 		"/>
		<polygon class="st158" points="49,701.3 28.1,728.4 38.6,736.2 78.1,722.2 56.3,711.4 		"/>
		<polygon class="st158" points="193.2,542.9 185.7,553.5 189.5,567.5 208,560.4 		"/>
		<polygon class="st158" points="540.1,598.3 526.1,615.9 543.3,623.5 559,614.1 559.7,598.3 		"/>
		<polygon class="st158" points="113,762.4 107,759 103.4,769.3 113.9,773.7 		"/>
		<polygon class="st158" points="120.8,610.4 104.6,652.2 129.1,674.6 159.3,645.1 		"/>
		<polygon class="st158" points="163,453.1 157.8,465.1 165.1,475.9 182.8,469.2 		"/>
		<polygon class="st158" points="150,793 139.6,864.5 158.6,883.7 158.3,808.5 		"/>
	</g>
	<polygon class="st6" points="422.2,322 417.2,328.7 419.8,334.6 426.8,329.8 427.4,322.9 	"/>
	<polygon class="st158" points="312.6,290.6 318,294.6 322.2,290.7 319.9,285.2 315.5,284.8 	"/>
	<polygon class="st158" points="275.4,274.5 278.4,276.7 280.7,274.6 279.4,271.5 276.9,271.3 	"/>
	<polygon class="st6" points="540.1,396.8 546.1,401.2 550.7,397 548.1,390.8 543.3,390.5 	"/>
	<polygon class="st6" points="431.7,284.8 431.5,288.5 434.6,289.3 436.5,286.5 435.3,284.4 	"/>
	<polygon class="st164" points="262.8,143.6 262.6,147.3 265.6,148.1 267.5,145.3 266.3,143.1 	"/>
	<polygon class="st6" points="431.2,39.9 430.8,46.5 436.3,47.9 439.7,42.9 437.6,39.1 	"/>
	<polygon class="st158" points="259.2,293.4 270.2,302.4 282.8,289.5 269.9,280.4 257.5,283.8 	"/>
	<polygon class="st164" points="295.6,108.6 292.9,118.6 295.3,118.6 301.9,111.1 301.9,104.5 	"/>
	<polygon class="st6" points="478.4,14.5 497.1,22.5 502.8,15.3 484,11.3 	"/>
	<polygon class="st6" points="178.1,146.6 187,148.4 191,140.2 181.8,135.6 	"/>
	<polygon class="st6" points="518.4,146.6 521.5,159.3 529.1,157 521.3,146.6 	"/>
	<polygon class="st6" points="475.5,222.7 480.5,237.7 489.6,237.6 491.4,222.6 483.5,216.3 	"/>
	<polygon class="st6" points="195.5,198.1 194.6,209.6 198.2,209.6 201.1,198 	"/>
	<polygon class="st158" points="522.7,318.9 514.5,329.1 524.6,333.5 534.1,318.9 	"/>
	<polygon class="st158" points="484.9,121.8 479.6,136.3 494.8,142.4 501.4,123.4 	"/>
</g>
</svg>
