<?xml version="1.0" encoding="utf-8"?>
<!-- Generator: Adobe Illustrator 28.1.0, SVG Export Plug-In . SVG Version: 6.00 Build 0)  -->
<svg version="1.1" id="Layer_1" xmlns="http://www.w3.org/2000/svg" xmlns:xlink="http://www.w3.org/1999/xlink" x="0px" y="0px"
	 viewBox="0 0 1024 1024" style="enable-background:new 0 0 1024 1024;" xml:space="preserve">
<style type="text/css">
	.st0{fill:#FFFFFF;}
	.st1{fill:#83C6BB;}
</style>
<path id="App_Icon_Placeholder_00000093864478326680207870000002877801564201956026_" class="st0" d="M1629.4,0h310
	c102.8,0,154.2,0,209.5,17.5c60.4,22,108,69.6,130,130c17.5,55.3,17.5,106.7,17.5,209.5v310c0,102.8,0,154.2-17.5,209.5
	c-22,60.4-69.6,108-130,130c-55.3,17.5-106.7,17.5-209.5,17.5h-310c-102.8,0-154.2,0-209.5-17.5c-60.4-22-108-69.6-130-130
	c-17.5-55.3-17.5-106.7-17.5-209.5V357c0-102.8,0-154.2,17.5-209.5c22-60.4,69.6-108,130-130C1475.2,0,1526.6,0,1629.4,0L1629.4,0"
	/>
<path class="st0" d="M2416.4-391.2l-23.7-86c-1.2-4.2-5.9-6.5-10.1-5.3c-62.7,17.2-124.6,34.3-187.4,51.5
	c43.3-73.7,87.4-147.7,130.8-221.4c3-5.5,1.5-11.9-4-14.8c-25-13.7-51.8-25-79.8-33.1c-4.5-1.7-10.1,0.5-12.5,5.2l-107.9,182.9
	l-147.2-149.3c-3.3-3.2-8.6-4.1-12.6-2.1c-12.3,6.6-39.4,23.1-68.6,52.9c-3.8,4.1-3.8,10.6,0.5,15.3l177.3,179.9l-194.3-4.5
	c-4.4-0.2-8.4,3.2-8.5,7.6l-2.2,88.4c-0.2,4.4,3.2,8.4,7.6,8.5l271.7,6.7c0.7-0.1,1.4-0.2,2.2-0.3l262-72.3
	C2415.1-383,2417.6-386.9,2416.4-391.2z"/>
<path class="st1" d="M610.1,267.1l-74,10.9c-3.6,0.6-6,4.3-5.5,7.9c7.9,53.9,15.8,107.3,23.7,161.3c-57-43.6-114-87.9-171-131.6
	c-4.3-3-9.7-2.4-12.8,1.8c-13.9,19.4-26.1,40.6-35.7,63.1c-1.8,3.6-0.6,8.5,3,10.9l141.3,108.6L339.7,607.4c-3,2.4-4.3,6.7-3,10.3
	c4.3,10.9,15.2,35.2,37,62.5c3,3.6,8.5,4.3,12.8,1.2l168-129.2l-23.7,161.3c-0.6,3.6,1.8,7.3,5.5,7.9l73.4,10.9
	c3.6,0.6,7.3-1.8,7.9-5.5l33.4-225.6c0-0.6,0-1.2,0-1.8l-33.4-225.6C616.8,269,613.8,266.6,610.1,267.1z"/>
<path class="st1" d="M902.9,265.1c0-83-67.5-150.5-150.5-150.5H272.5c-83,0-150.5,67.5-150.5,150.5v479.1
	c0,83,67.5,150.5,150.5,150.5h147.6c21.1,0,42.6,0,64.6,0l55.3,0v0c20.9,0,42.5,0,64.7,0l12.9,0c32.9,0,65.8-0.1,98.7-0.1
	c3.8,0,7.5,0,11.3,0.1c24.2,0.2,49.3,0.4,74.6-8.6c28.9-10.4,53.9-29.3,72.1-54.7c18.3-25.5,28.1-55.3,28.5-86l0-147.8l0-65.4h0.1
	v-54.6h0l0-65.4V265.1z M799.4,265v479.2c0,25.9-21,46.9-46.9,46.9H269.4c-24.4-1.6-43.8-22-43.8-46.8v-480
	c0-22.6,16.5-42.3,38.7-46.2h488.2C778.3,218.1,799.4,239.2,799.4,265z"/>
<!-- <path class="st0" d="M1542.6,73.2"/>
<path class="st0" d="M1545,66.1"/> -->
<g>
	<path class="st1" d="M448.3,201.5L448.3,201.5c-19.1,0-34.8-15.7-34.8-34.8V64.3c0-19.1,15.7-34.8,34.8-34.8h0
		c19.1,0,34.8,15.7,34.8,34.8v102.4C483.1,185.8,467.4,201.5,448.3,201.5z"/>
	<path class="st1" d="M569.3,201.5L569.3,201.5c-19.1,0-34.8-15.7-34.8-34.8V64.3c0-19.1,15.7-34.8,34.8-34.8h0
		c19.1,0,34.8,15.7,34.8,34.8v102.4C604.2,185.8,588.5,201.5,569.3,201.5z"/>
</g>
<g>
	<path class="st1" d="M448.3,980.6L448.3,980.6c-19.1,0-34.8-15.7-34.8-34.8V843.4c0-19.1,15.7-34.8,34.8-34.8h0
		c19.1,0,34.8,15.7,34.8,34.8v102.4C483.1,965,467.4,980.6,448.3,980.6z"/>
	<path class="st1" d="M569.3,980.6L569.3,980.6c-19.1,0-34.8-15.7-34.8-34.8V843.4c0-19.1,15.7-34.8,34.8-34.8h0
		c19.1,0,34.8,15.7,34.8,34.8v102.4C604.2,965,588.5,980.6,569.3,980.6z"/>
</g>
<g>
	<path class="st1" d="M219.6,568.2L219.6,568.2c0,19.1-15.7,34.8-34.8,34.8H59.3c-19.1,0-34.8-15.7-34.8-34.8v0
		c0-19.1,15.7-34.8,34.8-34.8h125.5C203.9,533.4,219.6,549.1,219.6,568.2z"/>
	<path class="st1" d="M219.6,447.2L219.6,447.2c0,19.1-15.7,34.8-34.8,34.8H59.3c-19.1,0-34.8-15.7-34.8-34.8v0
		c0-19.1,15.7-34.8,34.8-34.8h125.5C203.9,412.3,219.6,428,219.6,447.2z"/>
</g>
<g>
	<path class="st1" d="M1000.8,568.2L1000.8,568.2c0,19.1-15.7,34.8-34.8,34.8H840.5c-19.1,0-34.8-15.7-34.8-34.8v0
		c0-19.1,15.7-34.8,34.8-34.8H966C985.1,533.4,1000.8,549.1,1000.8,568.2z"/>
	<path class="st1" d="M1000.8,447.2L1000.8,447.2c0,19.1-15.7,34.8-34.8,34.8H840.5c-19.1,0-34.8-15.7-34.8-34.8v0
		c0-19.1,15.7-34.8,34.8-34.8H966C985.1,412.3,1000.8,428,1000.8,447.2z"/>
</g>
</svg>
