<?xml version="1.0" encoding="utf-8"?>
<!-- Generator: Adobe Illustrator 28.1.0, SVG Export Plug-In . SVG Version: 6.00 Build 0)  -->
<svg version="1.1" id="Layer_1" xmlns="http://www.w3.org/2000/svg" xmlns:xlink="http://www.w3.org/1999/xlink" x="0px" y="0px"
	 viewBox="0 0 128 128" style="enable-background:new 0 0 128 128;" xml:space="preserve">
<style type="text/css">
	.st0{fill:#010101;}
	.st1{fill:#70C8BB;}
	.st2{fill:#FFFFFF;}
	.st3{fill:#231F20;}
	.st4{fill:#333333;}
	.st5{fill:#FFFFFF;stroke:#FFFFFF;stroke-width:1.1161;stroke-miterlimit:10;}
	.st6{fill:none;stroke:#010101;stroke-width:5;stroke-miterlimit:10;}
	.st7{fill:#010101;stroke:#010101;stroke-width:0.5262;stroke-miterlimit:10;}
	.st8{fill:#83C6BB;}
</style>
<g>
	<path class="st8" d="M79.2,27.3L67.8,29c-0.6,0.1-0.9,0.7-0.8,1.2c1.2,8.3,2.4,16.5,3.6,24.7c-8.7-6.7-17.5-13.5-26.2-20.2
		c-0.7-0.5-1.5-0.4-2,0.3c-2.1,3-4,6.2-5.5,9.7c-0.3,0.6-0.1,1.3,0.5,1.7L59.1,63L37.7,79.5c-0.5,0.4-0.7,1-0.5,1.6
		c0.7,1.7,2.3,5.4,5.7,9.6c0.5,0.6,1.3,0.7,2,0.2L70.6,71L67,95.8c-0.1,0.6,0.3,1.1,0.8,1.2l11.3,1.7c0.6,0.1,1.1-0.3,1.2-0.8
		l5.1-34.6c0-0.1,0-0.2,0-0.3l-5.1-34.6C80.2,27.6,79.7,27.2,79.2,27.3z"/>
	<path class="st8" d="M122.5,67.1h-10.9v-7h10.9c2.2,0,4-1.9,4-4.2s-1.8-4.2-4-4.2h-10.9V32.8c0-9.4-7.6-17-17-17h-19V5.8
		c0-2.1-1.9-3.8-4.1-3.8c-2.3,0-4.1,1.7-4.1,3.8v9.9h-7.2V5.8c0-2.1-1.9-3.8-4.1-3.8c-2.3,0-4.1,1.7-4.1,3.8v9.9h-19
		c-9.4,0-17,7.6-17,17v19H5.3c-2.1,0-3.8,1.9-3.8,4.2c0,2.3,1.7,4.2,3.8,4.2h10.5v7.1H5.3c-2.1,0-3.8,1.9-3.8,4.2
		c0,2.3,1.7,4.2,3.8,4.2h10.5v19c0,9.4,7.6,17,17,17h19v10.6c0,2.1,1.9,3.8,4.2,3.8c2.3,0,4.2-1.7,4.2-3.8v-10.6h7.1v10.6
		c0,2.1,1.9,3.8,4.2,3.8c2.3,0,4.2-1.7,4.2-3.8v-10.6h18.9c9.3,0,17-7.6,17.1-17v-19h10.9c2.1,0,3.9-1.8,4-4.1l0-0.1
		C126.5,69.1,124.7,67.1,122.5,67.1z M32.8,102.8c-4.6,0-8.3-3.7-8.3-8.3V32.7c0-4.2,3.1-7.7,7.1-8.3h63c4.6,0,8.3,3.7,8.3,8.3v61.7
		c0,4.6-3.7,8.3-8.3,8.3H32.8z"/>
</g>
</svg>
