<?xml version="1.0" encoding="utf-8"?>
<!-- Generator: Adobe Illustrator 26.2.1, SVG Export Plug-In . SVG Version: 6.00 Build 0)  -->
<svg version="1.1" id="Layer_2_00000000905532406708545630000017206184856468260016_"
	 xmlns="http://www.w3.org/2000/svg" xmlns:xlink="http://www.w3.org/1999/xlink" x="0px" y="0px" viewBox="0 0 197.1 196.9"
	 style="enable-background:new 0 0 197.1 196.9;" xml:space="preserve">
<style type="text/css">
	.st0{fill:#FFFFFF;}
	.st1{fill:#6FC7BA;}
	.st2{fill:none;}
	.st3{opacity:0.34;fill:#0F1B10;stroke:#000000;stroke-miterlimit:10;enable-background:new    ;}
	.st4{fill:none;stroke:#000000;stroke-width:6;stroke-linecap:round;stroke-linejoin:round;}
</style>
<g id="Layer_1-2">
	<g>
		<g>
			<circle class="st0" cx="98.5" cy="98.4" r="70.3"/>
			<path class="st1" d="M185.7,60.6c-4.8-11.6-12.4-22.3-21.1-31c-8.7-8.7-19.9-15.3-31.5-20c-11.1-4.6-23.6-7-36.4-7
				S70.6,3,59.5,7.7c-11.6,4.8-21.3,13.9-30,22.6s-18.9,18-23.7,29.6C1.2,71,2.7,84.6,2.7,97.5s0.9,25.4,5.6,36.6
				c4.8,11.6,14.6,19.8,23.3,28.5s16.6,19.1,28.2,23.9c11.2,4.6,24,7.8,36.9,7.8s25.5-3.8,36.6-8.5c11.6-4.8,22-12.3,30.8-21
				c8.7-8.7,15.7-19.4,20.6-31c4.6-11.1,9.9-23.6,9.9-36.4S190.3,71.8,185.7,60.6L185.7,60.6z M123.6,152.2l-20.3-3l5.8-39.4
				l-42.6,32.8L54,126.2l37.4-28.8L53.9,68.7l12.5-16.4L109,85.1l-5.8-39.4l20.3-3l8.1,54.8L123.6,152.2L123.6,152.2z"/>
		</g>
		<rect x="-70.2" y="-70.1" class="st2" width="337.4" height="337.1"/>
	</g>
</g>
<rect x="91.6" y="90.3" class="st2" width="104" height="104"/>
<path class="st3" d="M170.8,111.7h-54.3c-1.7,0-3,1.4-3,3.1v55c0,1.7,1.4,3.1,3,3.1h54.3c1.7,0,3-1.4,3-3.1v-55
	C173.8,113.1,172.4,111.7,170.8,111.7z M152.7,151.5h-18.1v-18.3h18.1V151.5z"/>
<rect x="133.9" y="132.6" class="st4" width="19.5" height="19.5"/>
<path class="st4" d="M114.4,109.8h58.5c1.8,0,3.2,1.5,3.2,3.2v58.5c0,1.8-1.5,3.2-3.2,3.2h-58.5c-1.8,0-3.2-1.5-3.2-3.2v-58.5
	C111.1,111.3,112.6,109.8,114.4,109.8z"/>
<line class="st4" x1="176.1" y1="132.6" x2="185.9" y2="132.6"/>
<line class="st4" x1="176.1" y1="152.1" x2="185.9" y2="152.1"/>
<line class="st4" x1="101.4" y1="132.6" x2="111.1" y2="132.6"/>
<line class="st4" x1="101.4" y1="152.1" x2="111.1" y2="152.1"/>
<line class="st4" x1="153.4" y1="174.8" x2="153.4" y2="184.6"/>
<line class="st4" x1="133.9" y1="174.8" x2="133.9" y2="184.6"/>
<line class="st4" x1="153.4" y1="100.1" x2="153.4" y2="109.8"/>
<line class="st4" x1="133.9" y1="100.1" x2="133.9" y2="109.8"/>
</svg>
