<svg fill="#ffffff" xmlns="http://www.w3.org/2000/svg"  viewBox="0 0 128 128" width="64px" height="64px"><path d="M 64 10 C 57.75 10 51.709063 13.000625 46.539062 18.640625 A 2.0180436 2.0180436 0 0 0 49.539062 21.339844 C 53.879063 16.539844 58.9 14 64 14 C 70.73 14 76.919766 18.269141 81.759766 25.369141 A 69.75 69.75 0 0 0 63.869141 29.060547 A 66.58 66.58 0 0 0 43.160156 25.470703 C 31.080156 25.470703 22.020391 29.650469 17.650391 37.230469 C 13.380391 44.610469 14.419297 54.17 19.529297 63.75 C 14.049297 73.57 12.860469 83.42 17.230469 91 C 20.360469 96.42 25.969453 100.15078 33.439453 101.80078 A 2.2 2.2 0 0 0 33.880859 101.80078 A 2 2 0 0 0 34.310547 97.849609 C 28.000547 96.489609 23.249219 93.42 20.699219 89 C 17.289219 83.1 18.000547 75.490391 21.810547 67.650391 A 69.33 69.33 0 0 0 33.699219 81.330078 C 37.999219 102.63008 50 118 64 118 C 72.6 118 80.409922 112.23062 86.169922 102.89062 C 97.519922 102.75062 106.74992 98.890469 111.16992 91.230469 C 114.28992 85.810469 114.72016 79.089063 112.41016 71.789062 A 2.002024 2.002024 0 1 0 108.58984 72.990234 C 110.58984 79.200234 110.23945 84.810469 107.68945 89.230469 C 104.24945 95.230469 97.209375 98.419219 88.359375 98.949219 A 69.4 69.4 0 0 0 94.269531 81.480469 C 110.48953 67.130469 117.77953 49.14 110.76953 37 C 106.50953 29.63 97.829766 25.499531 86.259766 25.269531 C 80.499766 15.829531 72.65 10 64 10 z M 84.099609 29.269531 C 88.999609 38.269531 92 50.52 92 64 A 86.29 86.29 0 0 1 90.640625 79.380859 A 85.72 85.72 0 0 1 78 88.25 C 77.41 88.59 76.810703 88.93 76.220703 89.25 A 2.0004062 2.0004062 0 0 0 78.140625 92.759766 C 78.760625 92.419766 79.38 92.070938 80 91.710938 A 89.81 89.81 0 0 0 89.25 85.589844 A 60.57 60.57 0 0 1 84 99 C 73.86 98.63 61.929922 95.120469 50.419922 88.480469 A 86.42 86.42 0 0 1 37.419922 79.25 A 85.86 85.86 0 0 1 36 64 L 36 62 A 2.0006249 2.0006249 0 0 0 32 61.900391 L 32 64.039062 A 89.54 89.54 0 0 0 32.650391 74.910156 A 59.66 59.66 0 0 1 24 63.800781 C 29.37 55.120781 38.43 46.450781 50 39.800781 A 85.67 85.67 0 0 1 63.869141 33.339844 A 85.39 85.39 0 0 1 78.390625 40 C 78.990625 40.34 79.570391 40.69 80.150391 41 A 2.0014245 2.0014245 0 0 0 82.230469 37.580078 C 81.630469 37.210078 81.010625 36.850234 80.390625 36.490234 A 92.56 92.56 0 0 0 70 31.369141 A 60.2 60.2 0 0 1 84.099609 29.269531 z M 88.529297 29.369141 C 97.449297 29.999141 104.06078 33.38 107.30078 39 C 112.86078 48.62 107.60078 62.770078 95.300781 75.080078 A 90.82 90.82 0 0 0 96 64 C 96 50.83 93.189297 38.749141 88.529297 29.369141 z M 43.140625 29.470703 A 59.15 59.15 0 0 1 57.689453 31.470703 A 91.72 91.72 0 0 0 48 36.289062 C 36.68 42.819063 27.669141 51.220859 21.869141 59.880859 C 18.319141 52.280859 17.779844 45.000469 21.089844 39.230469 C 24.719844 32.940469 32.550625 29.470703 43.140625 29.470703 z M 64.666016 48.013672 A 16 16 0 0 0 48 64 A 16 16 0 0 0 64 80 A 16 16 0 0 0 64.666016 48.013672 z M 64 52 A 12 12 0 1 1 52 64 A 12 12 0 0 1 64 52 z M 38.720703 85.490234 A 90.28 90.28 0 0 0 48.390625 91.939453 C 59.630625 98.429453 71.319922 102 81.669922 102.75 C 76.849922 109.78 70.69 114 64 114 C 52.87 114 43.230703 102.33023 38.720703 85.490234 z"/></svg>