<?xml version="1.0" encoding="utf-8"?>
<!-- Generator: Adobe Illustrator 26.3.1, SVG Export Plug-In . SVG Version: 6.00 Build 0)  -->
<svg version="1.1" id="Layer_2_00000028318511063936597010000001605560203188971954_"
	 xmlns="http://www.w3.org/2000/svg" xmlns:xlink="http://www.w3.org/1999/xlink" x="0px" y="0px" viewBox="0 0 76.1 76"
	 style="enable-background:new 0 0 76.1 76;" xml:space="preserve">
<style type="text/css">
	.st0{fill:#FFFFFF;}
	.st1{fill:#49EACB;}
</style>
<circle class="st0" cx="35.8" cy="37.6" r="28.1"/>
<g id="Layer_1-2">
	<path class="st1" d="M72.6,23c-1.9-4.6-4.9-8.8-8.4-12.3c-3.5-3.5-7.9-6.1-12.5-7.9C47.3,0.9,42.4,0,37.3,0S27,0.2,22.6,2
		c-4.6,1.9-8.4,5.5-11.9,9c-3.5,3.5-7.5,7.1-9.4,11.7c-1.8,4.4-1.2,9.8-1.2,14.9s0.4,10.1,2.2,14.5c1.9,4.6,5.8,7.8,9.2,11.3
		c3.5,3.5,6.6,7.6,11.2,9.5c4.4,1.8,9.5,3.1,14.6,3.1s10.1-1.5,14.5-3.3c4.6-1.9,8.7-4.9,12.2-8.3c3.5-3.5,6.2-7.7,8.2-12.3
		c1.8-4.4,3.9-9.3,3.9-14.4S74.4,27.4,72.6,23z M48,59.3l-8.1-1.2l2.3-15.6l-16.9,13l-5-6.5l14.8-11.4L20.4,26.2l5-6.5l16.9,13
		l-2.3-15.6l8.1-1.2l3.2,21.7L48,59.3z"/>
</g>
</svg>
