<svg fill="#000000" xmlns="http://www.w3.org/2000/svg"  viewBox="0 0 80 80" width="80px" height="80px"><path d="M 13 9 C 10.802666 9 9 10.802666 9 13 L 9 21 L 11 21 L 11 13 C 11 11.883334 11.883334 11 13 11 L 21 11 L 21 9 L 13 9 z M 59 9 L 59 11 L 67 11 C 68.116666 11 69 11.883334 69 13 L 69 21 L 71 21 L 71 13 C 71 10.802666 69.197334 9 67 9 L 59 9 z M 39.673828 14 C 28.025562 14.144537 18.16483 22.060033 15.035156 32.755859 A 1.0003133 1.0003133 0 1 0 16.955078 33.318359 C 19.840874 23.456 28.940211 16.13608 39.693359 16 C 43.578109 15.97308 47.296376 16.849947 50.638672 18.552734 A 1.0001 1.0001 0 1 0 51.546875 16.771484 C 47.917171 14.922272 43.874938 13.970924 39.679688 14 L 39.677734 14 L 39.673828 14 z M 39.736328 19 C 34.529676 19.065057 29.76482 21.036587 26.125 24.246094 A 1.0001 1.0001 0 1 0 27.447266 25.746094 C 30.743446 22.8396 35.042418 21.05699 39.759766 20.998047 C 51.014466 20.858408 59.669394 30.743711 58.933594 42.017578 C 58.933507 42.018878 58.933681 42.020184 58.933594 42.021484 L 58.851562 42.908203 A 1.0003149 1.0003149 0 0 0 60.84375 43.091797 L 60.927734 42.164062 L 60.929688 42.150391 C 61.739547 29.777915 52.176304 18.845655 39.736328 19 z M 57.863281 21.720703 A 1.0001 1.0001 0 0 0 57.121094 23.417969 C 61.897292 28.453586 64.379677 35.358484 63.921875 42.347656 C 63.909115 42.540053 63.896339 42.728429 63.880859 42.917969 A 1.0001 1.0001 0 1 0 65.873047 43.082031 C 65.889577 42.879571 65.904729 42.678119 65.917969 42.478516 C 66.412167 34.933688 63.738068 27.487399 58.572266 22.041016 A 1.0001 1.0001 0 0 0 57.863281 21.720703 z M 40 23.998047 C 31.17552 23.998047 24 31.173567 24 39.998047 L 24 39.964844 C 23.94693 41.60514 23.689453 42.787109 23.689453 42.787109 A 1.0004524 1.0004524 0 1 0 25.644531 43.212891 C 25.644531 43.212891 25.941066 41.852954 26 40.03125 A 1.0001 1.0001 0 0 0 26 39.998047 C 26 32.254527 32.25648 25.998047 40 25.998047 C 45.877801 25.998047 50.896209 29.611677 52.976562 34.730469 A 1.0001 1.0001 0 1 0 54.828125 33.976562 C 52.44848 28.12135 46.698199 23.998047 40 23.998047 z M 22.701172 28.984375 A 1.0001 1.0001 0 0 0 21.818359 29.496094 C 20.027234 32.586992 19 36.177975 19 39.998047 L 19 42.998047 A 1.0001 1.0001 0 1 0 21 42.998047 L 21 39.998047 C 21 36.536119 21.927953 33.295149 23.548828 30.498047 A 1.0001 1.0001 0 0 0 22.701172 28.984375 z M 40 28.998047 A 1.0001 1.0001 0 1 0 40 30.998047 C 44.981375 30.998047 49 35.016672 49 39.998047 C 49 40.820315 48.93291 41.788573 48.777344 42.855469 A 1.0001 1.0001 0 1 0 50.755859 43.144531 C 50.92429 41.989427 51 40.929779 51 39.998047 C 51 33.935421 46.062625 28.998047 40 28.998047 z M 35 30.335938 A 1.0001 1.0001 0 1 0 35 32.335938 A 1.0001 1.0001 0 1 0 35 30.335938 z M 31.730469 33.388672 L 30.927734 33.789062 L 30.771484 34.671875 L 31.382812 35.326172 L 31.730469 35.388672 L 32.53125 34.986328 L 32.689453 34.105469 L 32.076172 33.451172 L 31.730469 33.388672 z M 40 33.970703 C 36.705135 33.970703 34 36.64093 34 39.943359 C 34 40.877385 33.86901 41.545916 33.748047 41.966797 C 33.627084 42.387678 33.552734 42.496094 33.552734 42.496094 A 1.0004315 1.0004315 0 1 0 35.28125 43.503906 C 35.28125 43.503906 35.499385 43.1129 35.669922 42.519531 C 35.840459 41.926162 36 41.066334 36 39.943359 C 36 37.721789 37.772865 35.970703 40 35.970703 C 42.215053 35.970703 44 37.776235 44 39.998047 C 44 39.913937 43.997699 40.286312 43.949219 40.808594 C 43.900779 41.330875 43.806457 42.079691 43.626953 42.986328 A 1.0005007 1.0005007 0 1 0 45.589844 43.375 C 45.78434 42.392637 45.885389 41.577109 45.939453 40.994141 C 45.993517 40.411172 46 40.136158 46 39.998047 C 46 36.695859 43.308947 33.970703 40 33.970703 z M 30.103516 37.552734 L 29.302734 37.953125 L 29.144531 38.835938 L 29.757812 39.490234 L 30.103516 39.552734 L 30.904297 39.150391 L 31.0625 38.267578 L 30.451172 37.613281 L 30.103516 37.552734 z M 14.984375 38.984375 A 1.0001 1.0001 0 0 0 14 39.998047 L 14 42.998047 A 1.0001 1.0001 0 1 0 16 42.998047 L 16 39.998047 A 1.0001 1.0001 0 0 0 14.984375 38.984375 z M 39.984375 38.984375 A 1.0001 1.0001 0 0 0 39 39.998047 C 39 39.998047 39.002699 41.060017 38.617188 42.75 A 1.0006712 1.0006712 0 1 0 40.568359 43.195312 C 40.996808 41.317296 41 39.998047 41 39.998047 A 1.0001 1.0001 0 0 0 39.984375 38.984375 z M 54.984375 38.984375 A 1.0001 1.0001 0 0 0 54 39.998047 C 54 40.930246 53.94791 41.898497 53.837891 42.890625 A 1.0001 1.0001 0 1 0 55.824219 43.109375 C 55.942197 42.045503 56 41.005848 56 39.998047 A 1.0001 1.0001 0 0 0 54.984375 38.984375 z M 29.457031 42 A 1.0001 1.0001 0 1 0 29.457031 44 A 1.0001 1.0001 0 1 0 29.457031 42 z M 37.039062 47.988281 A 1.0001 1.0001 0 0 0 36.929688 48 L 30.740234 48 A 1.0001 1.0001 0 0 0 30.630859 47.990234 A 1.0001 1.0001 0 0 0 30.480469 48 L 11 48 L 10 48 L 10 50 L 11 50 L 27.525391 50 C 25.257139 51.337363 22.182969 52.405912 17.933594 52.816406 L 17.931641 52.816406 C 17.72291 52.836696 17.50956 52.855327 17.291016 52.873047 A 1.000281 1.000281 0 1 0 17.451172 54.867188 C 17.676628 54.848908 17.90173 54.828351 18.125 54.806641 C 24.211189 54.218708 28.275038 52.305856 30.957031 50 L 35.136719 50 C 32.374771 53.460169 27.635085 56.730173 19.228516 57.708984 A 1.0001 1.0001 0 1 0 19.458984 59.695312 C 29.247542 58.55559 34.696488 54.284245 37.609375 50 L 41.076172 50 C 39.806437 52.309956 37.995262 54.690846 35.376953 56.779297 A 1.0001 1.0001 0 1 0 36.623047 58.341797 C 39.834992 55.779842 41.942933 52.798062 43.330078 50 L 52.152344 50 C 51.699502 51.242776 51.162759 52.489063 50.53125 53.722656 C 49.622696 55.495995 50.155865 57.723318 51.857422 58.816406 C 53.81571 60.076106 55.707101 61.119055 57.609375 61.966797 A 1.0006716 1.0006716 0 0 0 58.423828 60.138672 C 56.628103 59.338413 54.827165 58.349066 52.939453 57.134766 A 1.0001 1.0001 0 0 0 52.939453 57.132812 C 52.11301 56.601948 51.851054 55.535427 52.3125 54.634766 A 1.0001 1.0001 0 0 0 52.3125 54.632812 C 53.097936 53.098537 53.742923 51.546284 54.269531 50 L 57.414062 50 C 57.071446 51.103463 56.690912 52.201597 56.240234 53.285156 C 55.799204 54.345359 56.196004 55.624938 57.236328 56.193359 C 58.558306 56.914999 59.867284 57.525591 61.201172 58.029297 A 1.0001107 1.0001107 0 1 0 61.908203 56.158203 C 60.668628 55.690112 59.444771 55.119467 58.195312 54.4375 C 58.071632 54.36992 58.016968 54.220483 58.085938 54.054688 C 58.640481 52.721403 59.106287 51.365003 59.505859 50 L 69 50 L 70 50 L 70 48 L 69 48 L 42.859375 48 A 1.0001 1.0001 0 0 0 42.734375 47.988281 A 1.0001 1.0001 0 0 0 42.568359 48 L 37.248047 48 A 1.0001 1.0001 0 0 0 37.039062 47.988281 z M 46 51.998047 A 1 1 0 0 0 45 52.998047 A 1 1 0 0 0 46 53.998047 A 1 1 0 0 0 47 52.998047 A 1 1 0 0 0 46 51.998047 z M 44 54.998047 A 1 1 0 0 0 43 55.998047 A 1 1 0 0 0 44 56.998047 A 1 1 0 0 0 45 55.998047 A 1 1 0 0 0 44 54.998047 z M 44.007812 58.625 C 42.346992 58.6163 40.684062 59.164345 39.322266 60.275391 A 1.0008407 1.0008407 0 1 0 40.587891 61.826172 C 42.578298 60.202263 45.424299 60.219243 47.404297 61.859375 A 1.0001 1.0001 0 1 0 48.679688 60.320312 C 47.327686 59.200384 45.668633 58.633711 44.007812 58.625 z M 9 59 L 9 67 C 9 69.197334 10.802666 71 13 71 L 21 71 L 21 69 L 13 69 C 11.883334 69 11 68.116666 11 67 L 11 59 L 9 59 z M 69 59 L 69 67 C 69 68.116666 68.116666 69 67 69 L 59 69 L 59 71 L 67 71 C 69.197334 71 71 69.197334 71 67 L 71 59 L 69 59 z M 30 60.115234 A 1.0001 1.0001 0 1 0 30 62.115234 A 1.0001 1.0001 0 1 0 30 60.115234 z M 26.757812 61.292969 L 25.957031 61.693359 L 25.798828 62.576172 L 26.410156 63.230469 L 26.757812 63.292969 L 27.558594 62.890625 L 27.716797 62.007812 L 27.105469 61.353516 L 26.757812 61.292969 z M 23.40625 62.109375 L 22.605469 62.509766 L 22.447266 63.392578 L 23.058594 64.046875 L 23.40625 64.109375 L 24.207031 63.707031 L 24.365234 62.824219 L 23.753906 62.169922 L 23.40625 62.109375 z M 20 62.664062 A 1.0001 1.0001 0 1 0 20 64.664062 A 1.0001 1.0001 0 1 0 20 62.664062 z"/></svg>