<svg fill="#000000" xmlns="http://www.w3.org/2000/svg"  viewBox="0 0 128 128" width="64px" height="64px"><path d="M105 6c0-1.7-1.3-3-3-3C78.1 3 55.6 4 38.7 5.9 12.2 8.9 10 12.7 10 16s2.2 7.1 28.7 10.1C55.6 28 78.1 29 102 29h1c3.9 0 7 3.1 7 7v4c0 1.7 1.3 3 3 3s3-1.3 3-3v-4c0-7.2-5.8-13-13-13h-1c-49.4 0-77.1-4.1-84.5-7 7.4-2.9 35.1-7 84.5-7C103.7 9 105 7.7 105 6zM126 76V55c0-1.7-1.3-3-3-3h-19.5C96.1 52 90 58.1 90 65.5S96.1 79 103.5 79h6.5v15c0 3.9-3.1 7-7 7h-1c-5.5 0-11.1-.1-16.5-.2-1.6 0-3 1.3-3.1 2.9 0 1.7 1.3 3 2.9 3.1 5.5.1 11.1.2 16.6.2h1c7.2 0 13-5.8 13-13V79h7C124.7 79 126 77.7 126 76zM120 73h-16.5c-4.1 0-7.5-3.4-7.5-7.5s3.4-7.5 7.5-7.5H120V73zM13.2 64.5c.3.1.5.1.8.1 1.3 0 2.5-.9 2.9-2.2.5-1.6-.5-3.3-2.1-3.7C8.4 56.9 7 54.8 7 54.5 7 53 15.4 48 34 48c1.7 0 3-1.3 3-3s-1.3-3-3-3C18.1 42 1 45.9 1 54.5 1 57.5 3.1 61.6 13.2 64.5zM13.2 124.5c.3.1.5.1.8.1 1.3 0 2.5-.9 2.9-2.2.5-1.6-.5-3.3-2.1-3.7-6.5-1.8-7.8-3.9-7.8-4.2 0-1.7-1.3-3-3-3s-3 1.3-3 3C1 117.5 3.1 121.6 13.2 124.5zM13.2 104.5c.3.1.5.1.8.1 1.3 0 2.5-.9 2.9-2.2.5-1.6-.5-3.3-2.1-3.7C8.4 96.9 7 94.8 7 94.5c0-1.7-1.3-3-3-3s-3 1.3-3 3C1 97.5 3.1 101.6 13.2 104.5zM13.2 84.5c.3.1.5.1.8.1 1.3 0 2.5-.9 2.9-2.2.5-1.6-.5-3.3-2.1-3.7C8.4 76.9 7 74.8 7 74.5c0-1.7-1.3-3-3-3s-3 1.3-3 3C1 77.5 3.1 81.6 13.2 84.5zM34 61c-2.3 0-4.6-.1-6.8-.2-1.6-.1-3.1 1.1-3.2 2.8-.1 1.7 1.1 3.1 2.8 3.2 2.3.2 4.8.3 7.2.3 10.1 0 20.6-1.6 27-4.9v12.4C61 76 52.6 81 34 81c-2.3 0-4.6-.1-6.8-.2-1.6-.1-3.1 1.1-3.2 2.8-.1 1.7 1.1 3.1 2.8 3.2 2.3.2 4.8.3 7.2.3 10.1 0 20.6-1.6 27-4.9v12.4c0 1.5-8.4 6.5-27 6.5-2.3 0-4.6-.1-6.8-.2-1.6-.1-3.1 1.1-3.2 2.8-.1 1.7 1.1 3.1 2.8 3.2 2.3.2 4.8.3 7.2.3 10.1 0 20.6-1.6 27-4.9v12.4c0 1.5-8.4 6.5-27 6.5-2.3 0-4.6-.1-6.8-.2-1.6-.1-3.1 1.1-3.2 2.8-.1 1.7 1.1 3.1 2.8 3.2 2.3.2 4.8.3 7.2.3 15.9 0 33-3.9 33-12.5v-60c0-2.6-1.6-6.2-9.3-9-1.6-.6-3.3.2-3.8 1.8-.6 1.6.2 3.3 1.8 3.8 4.4 1.6 5.3 3.2 5.3 3.4C61 56 52.6 61 34 61z"/></svg>